<svg width="79" height="75" viewBox="0 0 79 75" fill="none" xmlns="http://www.w3.org/2000/svg">
<ellipse cx="39.5" cy="37.5" rx="39.5" ry="37.5" fill="#04E000"/>
<path d="M52.6237 40.7715C51.9713 40.4254 48.7093 38.7811 48.1384 38.5214C47.5675 38.2618 47.0782 38.1753 46.6705 38.8676C46.2627 39.5599 44.9579 41.1177 44.6317 41.5504C44.2239 41.9831 43.8977 42.0696 43.2453 41.7235C42.5929 41.3773 40.4725 40.685 37.9444 38.3483C35.9872 36.531 34.6824 34.2809 34.2746 33.5886C33.8669 32.8962 34.2746 32.5501 34.6008 32.2039C34.927 31.8577 35.2532 31.425 35.5794 30.9923C35.9057 30.5596 35.9872 30.3 36.2319 29.8673C36.4765 29.4345 36.3134 29.0018 36.1503 28.6557C35.9872 28.3095 34.6824 24.9344 34.1115 23.5497C33.5407 22.2516 33.0513 22.4247 32.6436 22.3381H31.4203C31.0126 22.3381 30.2786 22.5112 29.7077 23.2035C29.1369 23.8959 27.4243 25.5402 27.4243 28.9153C27.4243 32.2904 29.7893 35.4925 30.1155 36.0117C30.4417 36.4444 34.7639 43.3678 41.2881 46.3102C42.8375 47.0025 44.0608 47.4352 45.0394 47.7814C46.5889 48.3007 48.0568 48.2141 49.1986 48.041C50.4218 47.8679 53.113 46.3967 53.6024 44.839C54.1732 43.2812 54.1732 41.8966 54.0101 41.6369C53.6839 41.2908 53.2761 41.1177 52.6237 40.7715ZM40.1463 58.5991C36.2319 58.5991 32.4805 57.4741 29.1369 55.3971L28.3213 54.8778L20.1662 57.1279L22.3681 48.7334L21.8788 47.8679C19.7584 44.2332 18.6167 40.0792 18.6167 35.7521C18.6167 23.2035 28.3213 12.9916 40.2279 12.9916C45.8549 12.9916 51.3189 15.3282 55.3965 19.6553C59.4741 23.9824 61.676 29.6942 61.676 35.7521C61.676 48.3007 51.9713 58.5991 40.1463 58.5991ZM58.4955 16.3667C53.6024 11.1742 47.0782 8.31836 40.1463 8.31836C25.8748 8.31836 14.2129 20.6073 14.2129 35.7521C14.2129 40.5984 15.4362 45.2717 17.6381 49.4257L13.9683 63.6185L27.6689 59.8107C31.4203 61.9743 35.7425 63.1858 40.0648 63.1858C54.3363 63.1858 65.9982 50.8969 65.9982 35.7521C66.0798 28.4826 63.3886 21.5593 58.4955 16.3667Z" fill="white"/>
</svg>
