<svg width="973" height="889" viewBox="0 0 973 889" fill="none" xmlns="http://www.w3.org/2000/svg">
<path opacity="0.8" fill-rule="evenodd" clip-rule="evenodd" d="M804.006 168.038C871.537 236.143 945.86 303.573 966 397.215C986.591 492.953 959.163 592.034 913.801 678.527C869.216 763.535 804.568 842.839 714.629 876.5C629.302 908.434 538.711 867.188 448.576 852.644C359.688 838.301 237.226 893.036 145.303 826.46C65.7745 768.862 57.9592 647.358 33.8485 552.278C8.36012 451.766 -27.2772 315.118 33.4315 231.447C92.8013 149.622 188.341 180.45 268.386 136.348C361.687 84.9425 476.98 -4.08402 573.094 0.961226C670.173 6.0572 735.428 98.8749 804.006 168.038Z" fill="url(#paint0_linear_260_19)"/>
<defs>
<linearGradient id="paint0_linear_260_19" x1="685.168" y1="222.125" x2="-166.458" y2="786.989" gradientUnits="userSpaceOnUse">
<stop stop-color="#275DEF"/>
<stop offset="1" stop-color="#6D98FA"/>
</linearGradient>
</defs>
</svg>
