<svg width="61" height="61" viewBox="0 0 61 61" fill="none" xmlns="http://www.w3.org/2000/svg">
<path d="M16.867 0.933594H45.5473C46.1846 1.25226 47.1406 1.25226 47.778 1.57093C50.5747 2.02419 53.1896 3.24847 55.3288 5.10619C57.468 6.9639 59.0467 9.38142 59.8874 12.087C60.3581 13.6462 60.6782 15.2469 60.8435 16.8671V44.91C60.3879 48.4641 59.0756 51.8543 57.0194 54.7888C55.2555 56.8325 53.044 58.442 50.5569 59.4921C48.0699 60.5422 45.3741 61.0046 42.6793 60.8435H18.779C14.5138 61.0505 10.3201 59.6904 6.98824 57.0195C4.96214 55.2689 3.36324 53.0782 2.31382 50.6148C1.2644 48.1514 0.792258 45.4807 0.933508 42.8068V20.4999C0.880864 18.8999 0.987614 17.2987 1.25218 15.7199C1.57397 12.4528 2.91727 9.37031 5.09116 6.91038C7.26506 4.45044 10.159 2.73823 13.3616 2.01707L16.867 0.933594ZM6.98824 31.2072V43.6354C6.85237 45.218 7.06409 46.8112 7.60859 48.3034C8.15308 49.7956 9.01719 51.1508 10.1404 52.274C11.2636 53.3972 12.6188 54.2613 14.111 54.8058C15.6032 55.3503 17.1964 55.562 18.779 55.4261C27.0644 55.7448 35.3499 55.7448 43.6353 55.4261C50.9647 55.4261 55.1074 50.9648 55.4261 43.6354C55.7447 35.3499 55.7447 27.0645 55.4261 18.7791C55.5086 17.209 55.2602 15.639 54.6969 14.1711C54.1335 12.7032 53.2679 11.3701 52.1561 10.2583C51.0443 9.14649 49.7112 8.28085 48.2433 7.71752C46.7754 7.15419 45.2054 6.90575 43.6353 6.98832C35.3499 6.66965 27.0644 6.66965 18.779 6.98832C17.1964 6.85245 15.6032 7.06418 14.111 7.60867C12.6188 8.15317 11.2636 9.01727 10.1404 10.1405C9.01719 11.2637 8.15308 12.6188 7.60859 14.1111C7.06409 15.6033 6.85237 17.1965 6.98824 18.7791V31.2072Z" fill="white"/>
<path d="M15.7198 31.3345C15.7283 27.1958 17.3761 23.229 20.3026 20.3025C23.2291 17.376 27.196 15.7281 31.3347 15.7197C35.4504 15.8013 39.3749 17.4725 42.2858 20.3834C45.1967 23.2943 46.868 27.2188 46.9495 31.3345C46.9411 35.4733 45.2932 39.4401 42.3667 42.3666C39.4402 45.2931 35.4734 46.941 31.3347 46.9494C27.2189 46.8679 23.2944 45.1966 20.3835 42.2857C17.4727 39.3748 15.8014 35.4503 15.7198 31.3345ZM31.3347 21.4558C29.3991 21.4243 27.4983 21.9715 25.8758 23.0273C24.2532 24.083 22.9829 25.5992 22.2276 27.3816C21.4723 29.1639 21.2664 31.1312 21.6363 33.0313C22.0062 34.9314 22.9351 36.6778 24.3039 38.0466C25.6728 39.4154 27.4191 40.3443 29.3192 40.7142C31.2193 41.0842 33.1866 40.8783 34.969 40.123C36.7513 39.3677 38.2675 38.0973 39.3233 36.4748C40.379 34.8522 40.9263 32.9514 40.8948 31.0159C40.8948 28.4804 39.8875 26.0487 38.0947 24.2559C36.3018 22.463 33.8702 21.4558 31.3347 21.4558Z" fill="white"/>
<path d="M43.4441 15.0827C43.4262 14.5757 43.513 14.0705 43.6989 13.5985C43.8847 13.1265 44.1658 12.6978 44.5245 12.339C44.8832 11.9803 45.3119 11.6993 45.7839 11.5134C46.2559 11.3276 46.7611 11.2408 47.2681 11.2586C48.2602 11.3257 49.1943 11.7502 49.8975 12.4533C50.6006 13.1564 51.025 14.0906 51.0921 15.0827C51.0921 16.0969 50.6892 17.0695 49.9721 17.7867C49.2549 18.5038 48.2823 18.9067 47.2681 18.9067C46.2539 18.9067 45.2812 18.5038 44.5641 17.7867C43.8469 17.0695 43.4441 16.0969 43.4441 15.0827Z" fill="white"/>
</svg>
