<svg width="63" height="63" viewBox="0 0 63 63" fill="none" xmlns="http://www.w3.org/2000/svg">
<path d="M46.3304 37.1269C45.551 36.7372 41.654 34.8862 40.9721 34.5939C40.2901 34.3016 39.7056 34.2042 39.2184 34.9836C38.7313 35.763 37.1725 37.5166 36.7828 38.0038C36.2957 38.4909 35.906 38.5883 35.1266 38.1986C34.3472 37.8089 31.8142 37.0295 28.794 34.399C26.4558 32.3531 24.897 29.8201 24.4099 29.0407C23.9228 28.2613 24.4099 27.8716 24.7996 27.4819C25.1893 27.0922 25.579 26.6051 25.9687 26.118C26.3584 25.6308 26.4558 25.3386 26.7481 24.8515C27.0404 24.3643 26.8455 23.8772 26.6507 23.4875C26.4558 23.0978 24.897 19.2983 24.2151 17.7395C23.5331 16.2781 22.9486 16.473 22.4614 16.3755H21.0001C20.5129 16.3755 19.6361 16.5704 18.9542 17.3498C18.2722 18.1292 16.2263 19.9802 16.2263 23.7798C16.2263 27.5793 19.0516 31.184 19.4413 31.7686C19.831 32.2557 24.9945 40.0497 32.7884 43.3621C34.6395 44.1415 36.1008 44.6286 37.2699 45.0183C39.121 45.6029 40.8746 45.5054 42.2386 45.3106C43.7 45.1157 46.915 43.4595 47.4995 41.7059C48.1815 39.9522 48.1815 38.3935 47.9866 38.1012C47.5969 37.7115 47.1098 37.5166 46.3304 37.1269ZM31.4245 57.1964C26.7481 57.1964 22.2666 55.9298 18.2722 53.5917L17.2979 53.0071L7.5555 55.5401L10.186 46.09L9.60141 45.1157C7.06838 41.0239 5.70444 36.3475 5.70444 31.4763C5.70444 17.3498 17.2979 5.85369 31.5219 5.85369C38.2442 5.85369 44.7716 8.48415 49.6428 13.3554C54.5141 18.2266 57.1445 24.6566 57.1445 31.4763C57.1445 45.6029 45.551 57.1964 31.4245 57.1964ZM53.345 9.65325C47.4995 3.80778 39.7056 0.592773 31.4245 0.592773C14.3752 0.592773 0.443518 14.427 0.443518 31.4763C0.443518 36.9321 1.90488 42.193 4.53534 46.8694L0.151245 62.847L16.5185 58.5603C21.0001 60.9959 26.1636 62.3599 31.3271 62.3599C48.3763 62.3599 62.308 48.5256 62.308 31.4763C62.4054 23.2927 59.1904 15.4987 53.345 9.65325Z" fill="white"/>
<path d="M46.3304 37.1269C45.551 36.7372 41.654 34.8862 40.9721 34.5939C40.2901 34.3016 39.7056 34.2042 39.2184 34.9836C38.7313 35.763 37.1725 37.5166 36.7828 38.0038C36.2957 38.4909 35.906 38.5883 35.1266 38.1986C34.3472 37.8089 31.8142 37.0295 28.794 34.399C26.4558 32.3531 24.897 29.8201 24.4099 29.0407C23.9228 28.2613 24.4099 27.8716 24.7996 27.4819C25.1893 27.0922 25.579 26.6051 25.9687 26.118C26.3584 25.6308 26.4558 25.3386 26.7481 24.8515C27.0404 24.3643 26.8455 23.8772 26.6507 23.4875C26.4558 23.0978 24.897 19.2983 24.2151 17.7395C23.5331 16.2781 22.9486 16.473 22.4614 16.3755H21.0001C20.5129 16.3755 19.6361 16.5704 18.9542 17.3498C18.2722 18.1292 16.2263 19.9802 16.2263 23.7798C16.2263 27.5793 19.0516 31.184 19.4413 31.7686C19.831 32.2557 24.9945 40.0497 32.7884 43.3621C34.6395 44.1415 36.1008 44.6286 37.2699 45.0183C39.121 45.6029 40.8746 45.5054 42.2386 45.3106C43.7 45.1157 46.915 43.4595 47.4995 41.7059C48.1815 39.9522 48.1815 38.3935 47.9866 38.1012C47.5969 37.7115 47.1098 37.5166 46.3304 37.1269ZM31.4245 57.1964C26.7481 57.1964 22.2666 55.9298 18.2722 53.5917L17.2979 53.0071L7.5555 55.5401L10.186 46.09L9.60141 45.1157C7.06838 41.0239 5.70444 36.3475 5.70444 31.4763C5.70444 17.3498 17.2979 5.85369 31.5219 5.85369C38.2442 5.85369 44.7716 8.48415 49.6428 13.3554C54.5141 18.2266 57.1445 24.6566 57.1445 31.4763C57.1445 45.6029 45.551 57.1964 31.4245 57.1964ZM53.345 9.65325C47.4995 3.80778 39.7056 0.592773 31.4245 0.592773C14.3752 0.592773 0.443518 14.427 0.443518 31.4763C0.443518 36.9321 1.90488 42.193 4.53534 46.8694L0.151245 62.847L16.5185 58.5603C21.0001 60.9959 26.1636 62.3599 31.3271 62.3599C48.3763 62.3599 62.308 48.5256 62.308 31.4763C62.4054 23.2927 59.1904 15.4987 53.345 9.65325Z" fill="white" fill-opacity="0.2"/>
</svg>
