<svg width="919" height="866" viewBox="0 0 919 866" fill="none" xmlns="http://www.w3.org/2000/svg">
<path opacity="0.77" fill-rule="evenodd" clip-rule="evenodd" d="M469.102 4.12635C562.965 5.45105 661.112 1.63536 739.354 53.4107C819.348 106.345 868.075 194.612 895.641 286.38C922.735 376.574 931.897 476.555 892.109 561.93C854.361 642.928 762.788 676.266 689.83 728.001C617.882 779.02 556.373 848.774 469.102 861.886C374.055 876.167 276.176 852.527 194.173 802.472C107.485 749.557 16.341 676.751 1.43275 576.417C-13.1467 478.295 87.5601 405.221 121.283 311.913C153.313 223.289 122.614 108.201 193.241 45.7033C264.576 -17.4219 373.783 2.7811 469.102 4.12635Z" fill="url(#paint0_linear_165_18)"/>
<defs>
<linearGradient id="paint0_linear_165_18" x1="0" y1="433" x2="919" y2="433" gradientUnits="userSpaceOnUse">
<stop stop-color="#275DEF"/>
<stop offset="1" stop-color="#278FEF"/>
</linearGradient>
</defs>
</svg>
