<svg width="52" height="65" viewBox="0 0 52 65" fill="none" xmlns="http://www.w3.org/2000/svg">
<path d="M25.8727 63C39.0571 63 49.7454 49.3445 49.7454 32.5C49.7454 15.6553 39.0571 2 25.8727 2C12.6882 2 2 15.6553 2 32.5C2 49.3445 12.6882 63 25.8727 63Z" stroke="#E7F1F3" stroke-width="3" stroke-linecap="round" stroke-linejoin="round"/>
<path d="M33.0336 21.8248C31.3983 19.7356 28.5185 18.2824 25.8718 18.1914M25.8718 18.1914C22.7227 18.0831 19.9036 19.9032 19.9036 24.8748C19.9036 34.0248 33.0336 29.4498 33.0336 38.5998C33.0336 43.8184 29.5391 46.0607 25.8718 45.8924M25.8718 18.1914V12.6748M18.71 41.6498C20.2485 44.2707 23.1092 45.7655 25.8718 45.8924M25.8718 45.8924V52.3248" stroke="#E7F1F3" stroke-width="3" stroke-linecap="round" stroke-linejoin="round"/>
</svg>
