<svg width="64" height="64" viewBox="0 0 64 64" fill="none" xmlns="http://www.w3.org/2000/svg">
<g clip-path="url(#clip0_176_313)">
<path d="M55.6893 0.773438H8.49091C4.15259 0.773438 0.624512 4.30152 0.624512 8.63984V55.8383C0.624512 60.1766 4.15259 63.7047 8.49091 63.7047H55.6893C60.0277 63.7047 63.5557 60.1766 63.5557 55.8383V8.63984C63.5557 4.30152 60.0277 0.773438 55.6893 0.773438Z" fill="#C7D4DD"/>
<path fill-rule="evenodd" clip-rule="evenodd" d="M48 27.0769H38V19.8462C38 17.8505 39.792 18.0385 42 18.0385H46V9H38C34.8174 9 31.7652 10.1427 29.5147 12.1768C27.2643 14.2108 26 16.9696 26 19.8462V27.0769H18V36.1154H26V56H38V36.1154H44L48 27.0769Z" fill="#2D3381"/>
</g>
<defs>
<clipPath id="clip0_176_313">
<rect width="62.9312" height="62.9312" fill="white" transform="translate(0.624512 0.773438)"/>
</clipPath>
</defs>
</svg>
