<svg width="64" height="64" viewBox="0 0 64 64" fill="none" xmlns="http://www.w3.org/2000/svg">
<g clip-path="url(#clip0_176_304)">
<path d="M49.4994 0.773438H14.8186C7.01742 0.773438 0.693359 7.0975 0.693359 14.8986V49.5795C0.693359 57.3806 7.01742 63.7047 14.8186 63.7047H49.4994C57.3005 63.7047 63.6246 57.3806 63.6246 49.5795V14.8986C63.6246 7.0975 57.3005 0.773438 49.4994 0.773438Z" fill="#C7D4DD"/>
<path d="M22.4915 11.6726H42.1098C42.5458 11.8906 43.1997 11.8906 43.6357 12.1086C45.5487 12.4186 47.3374 13.2561 48.8007 14.5268C50.264 15.7976 51.3439 17.4512 51.919 19.302C52.2409 20.3685 52.4599 21.4634 52.5729 22.5717V41.754C52.2613 44.1852 51.3636 46.5041 49.9571 48.5115C48.7505 49.9094 47.2378 51.0103 45.5366 51.7287C43.8353 52.447 41.9914 52.7633 40.148 52.6531H23.7994C20.8818 52.7947 18.0132 51.8643 15.7341 50.0373C14.3481 48.8399 13.2544 47.3413 12.5366 45.6563C11.8187 43.9713 11.4958 42.1444 11.5924 40.3154V25.0567C11.5564 23.9622 11.6294 22.8669 11.8104 21.7869C12.0305 19.5522 12.9494 17.4436 14.4364 15.7609C15.9234 14.0783 17.9029 12.907 20.0937 12.4137L22.4915 11.6726ZM15.7341 32.3808V40.8821C15.6411 41.9647 15.7859 43.0545 16.1584 44.0752C16.5309 45.0959 17.1219 46.0229 17.8902 46.7912C18.6586 47.5595 19.5855 48.1506 20.6063 48.5231C21.627 48.8955 22.7168 49.0404 23.7994 48.9474C29.4669 49.1654 35.1344 49.1654 40.8019 48.9474C45.8155 48.9474 48.6492 45.8957 48.8672 40.8821C49.0852 35.2146 49.0852 29.5471 48.8672 23.8796C48.9237 22.8055 48.7538 21.7316 48.3684 20.7275C47.9831 19.7234 47.391 18.8115 46.6305 18.051C45.87 17.2905 44.9581 16.6984 43.954 16.3131C42.9498 15.9277 41.8759 15.7578 40.8019 15.8143C35.1344 15.5963 29.4669 15.5963 23.7994 15.8143C22.7168 15.7213 21.627 15.8661 20.6063 16.2386C19.5855 16.611 18.6586 17.2021 17.8902 17.9704C17.1219 18.7388 16.5309 19.6657 16.1584 20.6865C15.7859 21.7072 15.6411 22.797 15.7341 23.8796V32.3808Z" fill="#2D3381"/>
<path d="M21.7065 32.468C21.7123 29.6369 22.8395 26.9235 24.8413 24.9216C26.8432 22.9198 29.5566 21.7926 32.3876 21.7869C35.203 21.8426 37.8875 22.9859 39.8786 24.977C41.8697 26.9681 43.013 29.6526 43.0687 32.468C43.063 35.299 41.9358 38.0124 39.9339 40.0143C37.9321 42.0161 35.2187 43.1433 32.3876 43.149C29.5723 43.0933 26.8878 41.95 24.8967 39.9589C22.9055 37.9678 21.7623 35.2833 21.7065 32.468ZM32.3876 25.7105C31.0637 25.689 29.7634 26.0633 28.6535 26.7855C27.5437 27.5076 26.6747 28.5448 26.1581 29.764C25.6414 30.9832 25.5006 32.3289 25.7536 33.6286C26.0067 34.9283 26.6421 36.1229 27.5784 37.0592C28.5147 37.9955 29.7093 38.6309 31.009 38.884C32.3087 39.137 33.6544 38.9962 34.8736 38.4795C36.0928 37.9629 37.13 37.0939 37.8521 35.9841C38.5743 34.8742 38.9486 33.5739 38.9271 32.25C38.9271 30.5156 38.2381 28.8523 37.0117 27.6259C35.7853 26.3995 34.122 25.7105 32.3876 25.7105Z" fill="#2D3381"/>
<path d="M40.671 21.351C40.6588 21.0042 40.7181 20.6586 40.8453 20.3357C40.9724 20.0129 41.1647 19.7196 41.41 19.4742C41.6554 19.2289 41.9487 19.0366 42.2715 18.9095C42.5944 18.7824 42.94 18.723 43.2868 18.7352C43.9654 18.7811 44.6044 19.0714 45.0854 19.5524C45.5663 20.0334 45.8566 20.6723 45.9025 21.351C45.9025 22.0447 45.627 22.7101 45.1364 23.2006C44.6458 23.6912 43.9805 23.9668 43.2868 23.9668C42.593 23.9668 41.9277 23.6912 41.4371 23.2006C40.9466 22.7101 40.671 22.0447 40.671 21.351Z" fill="#2D3381"/>
</g>
<defs>
<clipPath id="clip0_176_304">
<rect width="62.9312" height="62.9312" fill="white" transform="translate(0.693359 0.773438)"/>
</clipPath>
</defs>
</svg>
