<svg width="64" height="64" viewBox="0 0 64 64" fill="none" xmlns="http://www.w3.org/2000/svg">
<path d="M16.8276 0.773438H15.1363C13.7269 0.843909 11.8946 0.914381 11.1194 1.1258C9.85094 1.40768 8.65292 1.76004 7.66632 2.25334C6.53877 2.81712 5.4817 3.59231 4.56557 4.50844C3.64943 5.42457 2.94472 6.41117 2.31047 7.60919C1.81717 8.5958 1.39434 9.79381 1.18292 10.9918C1.04198 11.8375 0.901038 13.6698 0.830566 15.0792V49.3989C0.901038 50.8083 0.97151 52.6406 1.18292 53.4158C1.46481 54.6843 1.81717 55.8823 2.31047 56.8689C2.87425 57.9964 3.64943 59.0535 4.56557 59.9697C5.4817 60.8858 6.4683 61.5905 7.66632 62.2248C8.65292 62.7181 9.85094 63.1409 11.049 63.3523C11.8946 63.4932 13.7269 63.6342 15.1363 63.7047H49.456C50.8655 63.6342 52.6977 63.5637 53.4729 63.3523C54.7414 63.0704 55.9394 62.7181 56.926 62.2248C58.0536 61.661 59.1107 60.8858 60.0268 59.9697C60.9429 59.0535 61.6476 58.0669 62.2819 56.8689C62.7752 55.8823 63.198 54.6843 63.4094 53.4863C63.5504 52.6406 63.6913 50.8083 63.7618 49.3989V15.0792C63.6913 13.6698 63.6208 11.8375 63.4094 11.0623C63.1275 9.79381 62.7752 8.5958 62.2819 7.60919C61.7181 6.48164 60.9429 5.42457 60.0268 4.50844C59.1107 3.59231 58.1241 2.88759 56.926 2.25334C55.9394 1.76004 54.7414 1.33721 53.5434 1.1258C52.6977 0.984853 50.8655 0.843909 49.456 0.773438H16.8276Z" fill="#C7D4DD"/>
<path d="M43.7468 35.587C43.1831 35.3052 40.3642 33.9662 39.8709 33.7548C39.3776 33.5434 38.9548 33.4729 38.6024 34.0367C38.2501 34.6004 37.1225 35.8689 36.8406 36.2213C36.4883 36.5736 36.2064 36.6441 35.6426 36.3622C35.0788 36.0803 33.2466 35.5166 31.0619 33.6138C29.3706 32.1339 28.2431 30.3017 27.8907 29.7379C27.5384 29.1741 27.8907 28.8922 28.1726 28.6103C28.4545 28.3285 28.7364 27.9761 29.0183 27.6237C29.3001 27.2714 29.3706 27.06 29.582 26.7076C29.7934 26.3552 29.6525 26.0029 29.5116 25.721C29.3706 25.4391 28.2431 22.6907 27.7498 21.5632C27.2565 20.5061 26.8336 20.647 26.4813 20.5766H25.4242C25.0718 20.5766 24.4376 20.7175 23.9443 21.2813C23.451 21.8451 21.9711 23.184 21.9711 25.9324C21.9711 28.6808 24.0148 31.2883 24.2967 31.7111C24.5785 32.0635 28.3135 37.7012 33.9513 40.0972C35.2902 40.661 36.3473 41.0134 37.193 41.2952C38.5319 41.7181 39.8004 41.6476 40.787 41.5067C41.8441 41.3657 44.1697 40.1677 44.5925 38.8992C45.0858 37.6307 45.0858 36.5032 44.9449 36.2918C44.663 36.0099 44.3106 35.8689 43.7468 35.587ZM32.9647 50.1042C29.582 50.1042 26.3403 49.1881 23.451 47.4968L22.7463 47.0739L15.6991 48.9062L17.6018 42.0704L17.179 41.3657C15.3468 38.4059 14.3601 35.0233 14.3601 31.4997C14.3601 21.2813 22.7463 12.9656 33.0351 12.9656C37.8977 12.9656 42.6193 14.8684 46.1429 18.3919C49.6665 21.9155 51.5692 26.5667 51.5692 31.4997C51.5692 41.7181 43.1831 50.1042 32.9647 50.1042ZM48.8208 15.714C44.5925 11.4857 38.9548 9.16016 32.9647 9.16016C20.6321 9.16016 10.5547 19.1671 10.5547 31.4997C10.5547 35.4461 11.6118 39.2516 13.5145 42.6342L10.3433 54.1916L22.1825 51.0908C25.4242 52.8526 29.1592 53.8392 32.8942 53.8392C45.2267 53.8392 55.3042 43.8322 55.3042 31.4997C55.3747 25.5801 53.0491 19.9423 48.8208 15.714Z" fill="#2D3381"/>
</svg>
