<svg width="64" height="64" viewBox="0 0 64 64" fill="none" xmlns="http://www.w3.org/2000/svg">
<g clip-path="url(#clip0_176_297)">
<mask id="mask0_176_297" style="mask-type:luminance" maskUnits="userSpaceOnUse" x="0" y="0" width="64" height="64">
<path d="M63.6929 0.773438H0.761719V63.7047H63.6929V0.773438Z" fill="white"/>
</mask>
<g mask="url(#mask0_176_297)">
<path d="M56.3182 0.773438H8.13647C4.06351 0.773438 0.761719 4.07523 0.761719 8.14819V56.3299C0.761719 60.4029 4.06351 63.7047 8.13647 63.7047H56.3182C60.3912 63.7047 63.6929 60.4029 63.6929 56.3299V8.14819C63.6929 4.07523 60.3912 0.773438 56.3182 0.773438Z" fill="#C7D4DD"/>
<path d="M44.5067 13.0647H51.0122L36.7996 29.3088L53.5197 51.4134H40.428L30.1741 38.0071L18.4414 51.4134H11.932L27.1338 34.0385L11.0942 13.0647H24.5182L33.7868 25.3186L44.5067 13.0647ZM42.2235 47.5195H45.8283L22.5595 16.754H18.6912L42.2235 47.5195Z" fill="#2D3381"/>
</g>
</g>
<defs>
<clipPath id="clip0_176_297">
<rect width="62.9312" height="62.9312" fill="white" transform="translate(0.761719 0.773438)"/>
</clipPath>
</defs>
</svg>
